# xmcd
#
# Track frame offsets: 
#        150
#        12105
#        26338
#        38423
#        52638
#        66968
#        80188
#        93725
#        108815
#        123118
#        134750
#        147270
#        159763
#        183207
#        197767
#        211320
#        232960
#        246803
#        260003
#        275965
#        288628
#        301035
#        315025
#        328620
#
# Disc length: 4562 seconds
#
# Revision: 1
# Processed by: cddbd v1.5.2PL0 Copyright (c) Steve Scherf et al.
# Submitted via: ExactAudioCopy v0.95b4
#
DISCID=4511d018
DTITLE=Charlie Parker - Bird: 1941-1953
DYEAR=1953
DGENRE=Jazz
TTITLE0=Swingmatism
TTITLE1=Red Cross
TTITLE2=Groovin' High
TTITLE3=Hot House
TTITLE4=Billie's Bounce
TTITLE5=Ko Ko
TTITLE6=Ornithology
TTITLE7=Lover Man
TTITLE8=Cool Blues
TTITLE9=Donna Lee
TTITLE10=Chasin' the Bird
TTITLE11=Half Nelson
TTITLE12=Night in Tunisia
TTITLE13=Bird of Paradise
TTITLE14=Scrample from the Apple
TTITLE15=The Bird
TTITLE16=Parker's Mood
TTITLE17=Mango Mangue
TTITLE18=Just Friends
TTITLE19=Relaxin' with Lee
TTITLE20=Au Privave
TTITLE21=My Little Suede Shoes
TTITLE22=Confirmation
TTITLE23=Now's the Time
EXTD=YEAR: 2004
EXTT0=
EXTT1=
EXTT2=
EXTT3=
EXTT4=
EXTT5=
EXTT6=
EXTT7=
EXTT8=
EXTT9=
EXTT10=
EXTT11=
EXTT12=
EXTT13=
EXTT14=
EXTT15=
EXTT16=
EXTT17=
EXTT18=
EXTT19=
EXTT20=
EXTT21=
EXTT22=
EXTT23=
PLAYORDER=
